# xmcd
# 
# Track frame offsets:
#     150
#     17187
#     40012
#     64437
#     83915
#     103162
#     122265
#     134905
#     152617
#     173540
#     194107
#     211812
#     230855
#     249877
# 
# Disc length: 3603
# 
# Revision: 2
# Processed by: cddbd v1.5.2PL0 Copyright (c) Steve Scherf et al.
# Submitted via: BonkEnc v1.0.8
# 
DISCID=c30e110e
DTITLE=Various Artist - It's TV Show!! [CD1]
DYEAR=2004
DGENRE=J ポップ
TTITLE0=負けないで/ZARD
TTITLE1=マリア/T-BOLAN
TTITLE2=Secret Night 〜It's My Treat〜/WANDS
TTITLE3=NAVY BLUE/愛内里菜
TTITLE4=永遠を駆け抜ける一瞬の僕ら/GARNET CROW
TTITLE5=I'll Be There/倉木麻衣
TTITLE6=想い出の九十九里浜/Mike
TTITLE7=Bye Bye My BLUE SKY/上原あずみ
TTITLE8=Teenage Dream/DEEN
TTITLE9=そばにいるよ/前田亘輝
TTITLE10=ANOTHER LIFE/SHU
TTITLE11=afresh wish/the★tambourines
TTITLE12=ミネラル/七緒　香
TTITLE13=GO FURTHER
EXTD=YEAR: 2004
EXTT0=
EXTT1=
EXTT2=
EXTT3=
EXTT4=
EXTT5=
EXTT6=
EXTT7=
EXTT8=
EXTT9=
EXTT10=
EXTT11=
EXTT12=
EXTT13=
PLAYORDER=
